<svg version="1.1" id="Layer_1" xmlns="http://www.w3.org/2000/svg" xmlns:xlink="http://www.w3.org/1999/xlink" x="0px" y="0px"
	 width="100%" viewBox="0 0 1024 1024" enable-background="new 0 0 1024 1024" xml:space="preserve">
<path fill="#000000" opacity="1.000000" stroke="none" 
	d="
M300.227936,110.889725 
	C372.861481,110.798523 445.017273,110.707031 517.173096,110.654678 
	C562.168945,110.622032 607.164917,110.708862 652.160339,110.569588 
	C657.590759,110.552788 661.528564,112.367920 665.346558,116.195549 
	C707.828369,158.784561 750.481079,201.202087 793.545105,243.205032 
	C807.019409,256.347290 820.178040,269.812988 833.500793,283.110992 
	C836.117432,285.722778 837.485962,288.786407 837.351990,292.507629 
	C837.304016,293.839081 837.349121,295.173767 837.349121,296.506989 
	C837.348572,486.156036 837.348206,675.805115 837.346313,865.454163 
	C837.346069,893.564392 814.653503,916.374146 786.644409,916.310181 
	C744.815857,916.214722 702.985046,916.279907 661.159424,915.860291 
	C558.175293,914.827148 455.189636,915.360657 352.206390,915.569946 
	C315.219238,915.645142 278.224792,916.197754 241.235306,916.036865 
	C218.829391,915.939453 202.686249,905.001709 192.486710,885.252625 
	C189.795364,880.041443 188.620743,874.376160 188.621948,868.398621 
	C188.669464,633.920410 188.623993,399.442108 188.754456,164.963943 
	C188.763397,148.892532 192.888016,134.038177 205.635544,122.736382 
	C213.881088,115.425980 223.444611,111.799606 234.304932,111.699692 
	C251.968506,111.537186 269.634735,111.683083 287.299347,111.596428 
	C291.450653,111.576073 295.599976,111.147018 300.227936,110.889725 
M430.499908,889.645508 
	C521.317444,889.645142 612.135010,889.644775 702.952576,889.644531 
	C730.614563,889.644409 758.276794,889.706909 785.938538,889.619141 
	C800.627258,889.572510 810.567505,879.654358 810.648132,865.249084 
	C811.570068,700.458252 809.978027,535.662354 811.628601,370.872803 
	C811.660217,367.719452 811.150208,364.552216 811.294250,361.409851 
	C812.103455,343.756134 811.395508,326.096069 811.663086,308.442078 
	C811.708435,305.453583 810.453979,304.276459 807.524719,304.197144 
	C802.035339,304.048553 796.552429,303.460632 791.065735,303.445251 
	C757.904968,303.352203 724.743774,303.345764 691.582764,303.377777 
	C687.052490,303.382141 682.619873,302.764404 678.276489,301.685425 
	C652.513794,295.285217 635.972900,274.093964 635.974731,246.919952 
	C635.977051,212.934189 636.335632,178.948364 636.574524,144.962799 
	C636.626038,137.640091 636.435120,137.316666 629.122192,137.316452 
	C534.471924,137.313614 439.821472,137.246948 345.171356,137.380905 
	C309.186066,137.431824 273.200928,137.904434 237.216873,138.291183 
	C225.953415,138.412262 216.887421,145.815887 215.415436,155.839554 
	C214.739319,160.443680 214.286301,165.064072 214.327835,169.756531 
	C214.574005,197.574097 214.854065,225.397614 214.907181,253.209641 
	C215.231445,423.012451 215.080154,592.816223 215.095261,762.619629 
	C215.098282,796.446899 215.211807,830.274353 215.095352,864.101196 
	C215.070358,871.359802 217.081451,877.469421 222.416092,882.480042 
	C227.957214,887.684570 234.594711,889.660522 242.031525,889.658447 
	C304.520966,889.641113 367.010437,889.646545 430.499908,889.645508 
M663.312134,205.499908 
	C663.317749,219.818390 663.236267,234.137589 663.352234,248.455185 
	C663.481934,264.468018 675.583618,276.586090 691.547058,276.628510 
	C720.683411,276.705933 749.820129,276.662079 778.956604,276.609253 
	C780.865417,276.605774 782.910767,277.114960 785.562195,275.462128 
	C745.157959,235.988678 706.512085,195.205902 665.494202,156.841095 
	C664.766846,157.188797 664.039429,157.536499 663.312073,157.884201 
	C663.312073,173.422775 663.312073,188.961334 663.312134,205.499908 
z"/>
<path fill="#000000" opacity="1.000000" stroke="none" 
	d="
M476.000122,531.639465 
	C543.823792,531.626892 611.147705,531.693787 678.471069,531.547607 
	C695.953308,531.509644 713.428528,530.349670 730.917297,531.603943 
	C738.583130,532.153748 743.006226,535.556152 743.811890,542.141357 
	C744.765564,549.936646 741.864746,554.440491 734.198730,556.713928 
	C730.349548,557.855530 726.344055,558.066284 722.337769,558.066833 
	C581.024841,558.086487 439.711945,558.109253 298.399017,558.123596 
	C288.272522,558.124634 283.634735,554.640015 282.454620,546.244080 
	C281.483887,539.337646 286.071777,533.348267 293.079681,532.703430 
	C298.378662,532.216003 303.707764,531.806458 309.024231,531.796570 
	C364.516113,531.693726 420.008118,531.678833 476.000122,531.639465 
z"/>
<path fill="#000000" opacity="1.000000" stroke="none" 
	d="
M323.999878,495.384827 
	C313.834778,495.386108 304.169342,495.436829 294.504730,495.371185 
	C287.663177,495.324707 282.504181,490.600494 281.723053,483.858978 
	C281.002777,477.642700 284.811432,472.452332 291.294983,470.544769 
	C294.074341,469.727020 296.875427,469.719299 299.705444,469.684967 
	C427.006348,468.139618 554.311218,469.046478 681.614624,469.050568 
	C696.111694,469.051025 710.608643,468.858521 725.105835,468.788574 
	C727.927734,468.774963 730.725525,468.774780 733.541626,469.439941 
	C740.052917,470.977966 742.889282,473.607941 743.319214,479.009552 
	C743.914062,486.482300 741.083496,491.790680 735.270874,494.048798 
	C732.263855,495.217010 729.121460,495.301514 725.934204,495.301758 
	C592.122742,495.312958 458.311310,495.350372 323.999878,495.384827 
z"/>
<path fill="#000000" opacity="1.000000" stroke="none" 
	d="
M469.000122,406.648071 
	C556.146851,406.650085 642.793518,406.648438 729.440247,406.660431 
	C738.148438,406.661652 742.062439,409.632904 743.339417,417.069489 
	C744.614990,424.498077 741.518616,429.384827 734.392578,431.352478 
	C731.797852,432.068970 729.193726,432.347748 726.506653,432.347626 
	C582.539856,432.341400 438.573029,432.360443 294.606201,432.365356 
	C286.411743,432.365662 283.328583,429.974609 281.877838,422.686737 
	C280.238556,414.451660 285.164642,407.963379 293.591461,407.706451 
	C308.900787,407.239746 324.215973,406.748016 339.530090,406.699829 
	C382.519714,406.564575 425.510040,406.649902 469.000122,406.648071 
z"/>
<path fill="#000000" opacity="1.000000" stroke="none" 
	d="
M346.345947,286.731140 
	C347.945831,301.735535 351.308533,315.454071 363.835815,324.920044 
	C379.590240,336.824493 400.445496,332.372070 409.879883,315.057068 
	C411.783539,311.563324 413.510803,307.973419 415.453796,304.164307 
	C420.718903,304.623413 425.651764,306.646881 430.743622,307.921539 
	C435.866119,309.203979 440.916504,310.774658 446.400269,312.333221 
	C443.601807,324.654846 437.202728,334.427155 428.266449,342.415436 
	C411.726654,357.200592 392.232452,360.908478 370.603607,357.798828 
	C336.720001,352.927277 316.212067,322.325989 313.478058,292.359497 
	C312.230682,278.686829 313.582031,265.541504 317.482971,252.550095 
	C325.344055,226.370071 350.016724,203.345688 383.441284,204.548248 
	C410.231201,205.512115 429.680756,217.352997 441.898834,241.145660 
	C442.653381,242.615021 443.159027,244.220032 443.692200,245.791870 
	C443.948822,246.548508 443.999634,247.374954 444.283173,248.939819 
	C434.915222,251.418304 425.691742,253.938705 416.419647,256.265411 
	C413.432953,257.014862 412.923950,254.244095 412.133057,252.371704 
	C408.767242,244.402939 403.658630,238.061478 395.632996,234.444061 
	C380.250366,227.510605 362.804230,233.065262 354.047821,247.700394 
	C346.914001,259.623718 345.814026,272.789093 346.345947,286.731140 
z"/>
<path fill="#000000" opacity="1.000000" stroke="none" 
	d="
M494.361694,339.513855 
	C479.474243,295.381897 464.727783,251.624100 449.688965,206.998840 
	C457.067413,207.937424 463.889282,206.875153 470.752747,206.696075 
	C484.695709,206.332245 484.782196,206.356827 489.122925,219.823288 
	C498.604645,249.238907 507.986267,278.686798 517.427307,308.115570 
	C518.026978,309.984833 518.785034,311.803253 519.929626,314.884155 
	C524.430481,300.465881 528.622498,287.238464 532.686584,273.971863 
	C539.063416,253.155563 545.364502,232.316055 551.663635,211.476089 
	C552.275146,209.452820 552.904785,207.676636 555.505859,207.682755 
	C566.139465,207.707779 576.773132,207.693192 587.212219,207.693192 
	C588.268860,209.923355 587.335144,211.444000 586.818359,212.940460 
	C572.005737,255.837296 557.182190,298.730377 542.308044,341.605957 
	C537.513123,355.427551 537.445862,355.401428 522.808655,355.410767 
	C516.144592,355.415039 509.477936,355.330750 502.817719,355.496948 
	C500.299316,355.559845 498.854523,355.070007 498.209412,352.308472 
	C497.228363,348.108856 495.762573,344.022491 494.361694,339.513855 
z"/>
<path fill="#000000" opacity="1.000000" stroke="none" 
	d="
M356.028687,820.363159 
	C344.205536,820.371338 344.457520,820.378845 344.120819,831.706238 
	C343.971771,836.720886 345.781464,837.980103 350.431091,837.757568 
	C360.846375,837.259094 371.331482,838.572937 381.788208,836.112366 
	C382.778870,840.806396 382.242493,845.124451 382.259796,849.415405 
	C382.268463,851.562988 380.917145,852.260071 378.994995,852.259460 
	C363.012604,852.254272 347.030182,852.229736 331.047913,852.270508 
	C328.363678,852.277405 327.653778,850.869629 327.656128,848.509644 
	C327.678406,826.200684 327.687744,803.891602 327.639832,781.582764 
	C327.634003,778.874939 328.636902,777.677368 331.435150,777.687988 
	C346.418427,777.744934 361.402191,777.732361 376.385529,777.679993 
	C379.047546,777.670654 380.416260,778.611816 380.337769,781.446777 
	C380.237366,785.072937 380.313416,788.703979 380.313416,792.340942 
	C369.842712,792.340942 359.923523,792.576538 350.023987,792.238220 
	C345.305176,792.076965 343.786438,793.716431 344.183350,798.233704 
	C344.521393,802.081055 343.120758,806.464050 349.793640,806.077026 
	C357.094025,805.653625 364.441986,806.127319 371.762665,805.945801 
	C375.721252,805.847656 377.823090,807.052551 377.297577,811.343933 
	C377.136841,812.656677 377.146362,814.016968 377.282654,815.334290 
	C377.697571,819.345581 375.799530,820.579285 372.003357,820.413391 
	C366.852142,820.188354 361.683533,820.360474 356.028687,820.363159 
z"/>
<path fill="#000000" opacity="1.000000" stroke="none" 
	d="
M437.064514,653.127197 
	C431.241547,657.886597 424.913300,659.660400 417.770081,659.440491 
	C409.280334,659.179077 400.774811,659.258118 392.279999,659.408447 
	C388.347565,659.478027 386.941223,658.718567 387.293976,654.063477 
	C388.034363,644.292725 387.744415,634.452698 387.219482,624.621033 
	C386.642792,613.820435 386.900330,602.977051 386.678925,592.154663 
	C386.619781,589.263794 388.024109,588.303223 390.603119,588.334229 
	C401.914368,588.470398 413.356537,587.585938 424.501465,589.016846 
	C436.551239,590.563904 446.627777,599.426086 448.105804,614.368469 
	C449.182465,625.253174 447.675262,635.963806 442.954559,646.024841 
	C441.662323,648.778931 439.978943,651.228027 437.064514,653.127197 
M406.122833,646.628235 
	C409.118378,646.642212 412.134369,646.436523 415.105408,646.713562 
	C422.502686,647.403320 426.811279,643.136414 429.349701,637.200317 
	C432.709320,629.343933 432.739960,620.937744 430.557220,612.751160 
	C429.072784,607.183594 424.691620,603.947205 419.281616,602.474670 
	C415.105438,601.338013 410.749420,601.286621 406.402954,601.350464 
	C403.392853,601.394714 402.301941,602.692505 402.319427,605.617615 
	C402.392059,617.766785 402.358154,629.916565 402.333740,642.066162 
	C402.329346,644.245422 402.725739,646.072083 406.122833,646.628235 
z"/>
<path fill="#000000" opacity="1.000000" stroke="none" 
	d="
M377.109039,740.972900 
	C376.635315,742.090515 376.356781,742.872253 376.113373,743.664673 
	C372.542328,755.289368 370.113556,756.599731 357.291656,753.605225 
	C358.514587,746.726685 360.956451,740.188843 363.095245,733.578674 
	C368.213257,717.760986 374.418274,702.303406 378.817291,686.247375 
	C379.659760,683.172485 380.748993,681.352539 384.699036,682.356750 
	C387.838531,683.154785 391.326569,682.755676 394.647888,682.611816 
	C397.509247,682.487854 399.214691,683.338257 400.197571,686.260010 
	C407.248169,707.218689 415.201996,727.868469 421.667114,749.029236 
	C422.109131,750.475830 422.591217,751.875366 422.116943,754.084778 
	C417.422821,754.666260 412.507050,754.504761 407.618164,754.158386 
	C405.322571,753.995789 405.201416,751.710876 404.624969,750.040405 
	C400.948608,739.387207 400.953857,739.228027 389.405334,739.458679 
	C385.387146,739.538879 381.114319,737.990662 377.109039,740.972900 
M392.134308,725.678955 
	C393.544678,725.473694 395.189392,726.093445 396.445709,724.238281 
	C394.596130,717.125671 392.816254,709.779724 389.709564,701.734131 
	C387.692780,708.390015 385.978394,714.051941 384.261444,719.713074 
	C382.597168,725.200745 382.907959,725.615417 388.767365,725.687012 
	C389.600372,725.697144 390.433624,725.688416 392.134308,725.678955 
z"/>
<path fill="#000000" opacity="1.000000" stroke="none" 
	d="
M600.447754,850.803345 
	C591.313660,854.162842 582.858154,853.378174 574.809082,848.692688 
	C572.670044,849.406067 572.401611,852.091614 569.737183,852.389099 
	C562.086365,853.243347 560.160400,852.055115 560.067688,844.305481 
	C559.870605,827.831238 559.959900,811.353638 559.936279,794.877380 
	C559.928711,789.601929 559.935120,784.326477 559.935120,778.560730 
	C564.895264,779.375977 570.260254,777.055908 575.967102,778.843811 
	C575.381775,786.114807 574.815308,793.151611 574.192993,800.882080 
	C577.862305,798.922363 580.528320,796.595154 583.932739,795.708984 
	C595.612793,792.668518 607.723267,799.503784 611.019470,811.595825 
	C613.661560,821.288208 613.071472,831.035950 609.251587,840.415405 
	C607.525818,844.652588 604.740479,848.159058 600.447754,850.803345 
M590.775818,838.395203 
	C596.738403,834.034058 598.657776,824.460205 595.353210,815.722046 
	C593.735229,811.443604 590.818542,808.457764 586.157349,808.581665 
	C581.609436,808.702576 577.835266,810.872498 575.995850,815.407349 
	C574.064880,820.168091 573.719543,825.077820 574.989685,830.057007 
	C576.920471,837.625977 582.531433,840.802734 590.775818,838.395203 
z"/>
<path fill="#000000" opacity="1.000000" stroke="none" 
	d="
M589.872925,647.767944 
	C586.385620,639.566223 587.033325,631.299377 588.108337,623.310059 
	C590.328613,606.809265 610.097046,598.075195 621.703857,607.112000 
	C622.050232,607.381653 622.595154,607.396301 623.763123,607.741150 
	C623.763123,602.688538 623.943665,597.926392 623.703796,593.185608 
	C623.524109,589.633362 624.936157,588.428101 628.341919,588.618958 
	C631.782959,588.811768 635.243225,588.661499 638.445374,588.661499 
	C639.767517,591.046021 639.321411,593.080017 639.326111,595.027832 
	C639.365417,611.338928 639.292480,627.650635 639.390747,643.961243 
	C639.413757,647.764343 639.954651,651.564697 640.268555,655.365417 
	C640.489197,658.037292 639.418152,659.724792 636.600342,659.266052 
	C632.706238,658.631958 627.892639,661.632446 624.892761,656.321167 
	C618.271179,660.375427 611.167603,662.809631 603.294067,660.210510 
	C597.123718,658.173645 592.842285,653.916687 589.872925,647.767944 
M617.697388,646.611328 
	C618.729004,646.118530 619.959900,645.840576 620.760010,645.098206 
	C626.027527,640.210999 625.559814,624.881042 619.984619,620.308716 
	C617.057373,617.908020 613.927856,616.566162 609.890747,618.111694 
	C605.720154,619.708252 604.036072,622.859314 603.488220,626.795776 
	C603.125305,629.403381 603.330750,632.096802 603.359497,634.750977 
	C603.469604,644.919189 606.644226,647.714600 617.697388,646.611328 
z"/>
<path fill="#000000" opacity="1.000000" stroke="none" 
	d="
M459.881287,613.111023 
	C467.984009,603.919861 484.211731,601.550842 494.766907,607.243591 
	C501.519836,610.885559 503.031982,616.796997 503.214081,623.526672 
	C503.376160,629.517212 503.240967,635.515381 503.280182,641.509827 
	C503.316956,647.130493 502.309174,652.826355 504.854797,658.143066 
	C498.325134,660.629272 491.339935,659.742615 488.128967,656.062805 
	C481.488922,660.824036 474.429626,664.028503 465.897064,661.398376 
	C459.081146,659.297302 454.388550,654.489929 453.702332,648.356750 
	C452.771637,640.038452 455.803864,634.186096 462.662201,630.466125 
	C467.495392,627.844482 472.848846,627.634705 478.043976,626.616821 
	C480.472046,626.141174 482.894501,625.522034 485.223267,624.696533 
	C486.689270,624.176880 487.613373,622.913086 487.562866,621.193970 
	C487.509094,619.364258 486.200928,618.728943 484.752594,618.118958 
	C478.986694,615.690430 474.081268,617.374268 470.919769,623.046814 
	C470.173584,624.385620 469.243439,625.044556 467.743530,624.906006 
	C466.915497,624.829407 466.089752,624.728638 465.262451,624.643921 
	C455.149689,623.608032 454.828094,622.962891 459.881287,613.111023 
M488.391846,636.965637 
	C484.349976,634.612000 472.839478,637.693604 470.919708,641.643311 
	C469.331390,644.911072 471.323303,648.210449 475.221375,648.768677 
	C481.622711,649.685425 486.384247,645.702087 488.391846,636.965637 
z"/>
<path fill="#000000" opacity="1.000000" stroke="none" 
	d="
M633.119385,796.555542 
	C640.291992,795.123352 647.090149,794.929810 653.737732,796.843750 
	C660.902588,798.906738 665.292419,805.847778 665.276245,815.345459 
	C665.261475,823.981445 666.150085,832.663696 664.444580,841.254639 
	C663.730652,844.850525 667.047485,847.765503 666.301758,851.375305 
	C658.791077,853.812683 652.493652,852.690735 649.861877,848.292542 
	C645.189880,851.675781 640.141235,853.649597 634.160889,853.447388 
	C624.407898,853.117737 617.162598,846.961304 616.676270,837.983337 
	C616.178528,828.794861 623.428040,820.610657 632.877991,819.666504 
	C635.850647,819.369507 638.811035,818.924622 641.788818,818.710205 
	C645.296814,818.457581 648.597534,817.697083 649.642273,813.877930 
	C650.427734,811.006775 648.272217,809.667664 645.836304,808.977844 
	C641.936401,807.873474 637.212585,807.447510 635.746704,811.586304 
	C633.847900,816.947449 630.347107,816.325928 626.430176,816.251892 
	C619.580933,816.122437 619.054565,815.646423 620.811768,809.081726 
	C622.475403,802.866394 626.551086,798.699524 633.119385,796.555542 
M646.151123,828.113586 
	C642.955627,828.978577 639.657776,829.584290 636.598206,830.793274 
	C634.293823,831.703918 633.012268,833.899475 633.511169,836.487976 
	C634.026062,839.159973 636.310669,840.171082 638.661987,840.511414 
	C643.318726,841.185547 649.776184,836.306458 650.496704,831.641479 
	C650.903931,829.005127 650.601318,826.718445 646.151123,828.113586 
z"/>
<path fill="#000000" opacity="1.000000" stroke="none" 
	d="
M572.425293,735.399780 
	C569.108704,725.580261 565.898621,716.137634 562.780640,706.664612 
	C561.111267,701.592712 561.637634,700.964844 567.129761,701.139587 
	C569.623840,701.218872 572.147583,701.761353 574.597229,701.508057 
	C578.073914,701.148560 579.293945,702.911072 580.010315,705.836487 
	C581.747681,712.931152 583.586609,720.001160 585.425537,727.070496 
	C586.132629,729.788513 586.691895,732.571350 588.624817,735.511047 
	C591.714478,725.724487 594.963501,716.391541 597.538635,706.876282 
	C598.846680,702.043152 601.302856,700.364807 606.054871,700.838684 
	C609.142517,701.146606 612.285767,700.896667 615.916565,700.896667 
	C606.902344,722.664124 601.258545,744.920349 593.113098,766.306763 
	C589.911072,774.713745 578.684204,779.297729 570.266479,776.448608 
	C568.480347,775.844055 567.886169,774.892761 568.122009,773.144104 
	C568.366333,771.332581 568.577454,769.514648 568.730225,767.693359 
	C568.962036,764.930420 570.213440,763.720886 573.186951,763.576050 
	C578.978638,763.293945 581.249634,759.657837 579.303162,754.013672 
	C577.189697,747.885254 574.825134,741.843506 572.425293,735.399780 
z"/>
<path fill="#000000" opacity="1.000000" stroke="none" 
	d="
M498.652893,827.829590 
	C498.652832,824.856323 498.961670,822.313416 498.602478,819.868652 
	C496.506683,805.605042 517.359375,789.472412 531.428772,794.704102 
	C540.732971,798.163879 548.262634,804.077576 550.738892,814.557129 
	C552.250732,820.955627 552.278381,827.288452 550.998352,833.785522 
	C548.885437,844.509827 537.324463,854.252380 524.033569,853.519531 
	C509.451721,852.715454 498.972931,842.969238 498.652893,827.829590 
M527.418640,808.169434 
	C521.873474,806.967773 517.075439,808.642334 515.586060,812.631958 
	C513.217346,818.977051 512.436218,825.455566 514.552307,832.104309 
	C515.870178,836.245056 518.499084,838.356689 522.867188,838.649597 
	C531.323730,839.216492 534.485229,836.918030 535.471497,828.485107 
	C535.969299,824.229126 535.925110,819.908752 534.751648,815.637817 
	C533.747925,811.984497 532.053955,809.250610 527.418640,808.169434 
z"/>
<path fill="#000000" opacity="1.000000" stroke="none" 
	d="
M553.729431,748.672363 
	C545.851929,756.552124 532.146667,759.279846 522.025085,754.651245 
	C511.672516,749.916992 506.342438,741.667114 506.634705,730.094360 
	C506.731049,726.279602 506.422668,722.366394 507.166260,718.672668 
	C509.343506,707.857422 517.737976,700.361633 528.790588,698.765869 
	C540.651001,697.053467 551.022644,701.680664 556.168701,711.744385 
	C562.565552,724.254272 562.286621,736.639648 553.729431,748.672363 
M522.380981,731.019775 
	C522.989197,733.431152 523.343384,735.944092 524.258118,738.232971 
	C526.192810,743.074341 530.401672,743.916260 534.991760,743.639526 
	C539.146362,743.389038 541.686401,741.189331 542.704285,737.082336 
	C544.305176,730.623230 544.139221,724.176392 542.363159,717.849182 
	C541.140808,713.494324 537.753235,711.488708 533.298462,711.383911 
	C528.629089,711.273865 525.201294,713.192505 523.754211,717.814514 
	C522.501526,721.815552 522.020020,725.941650 522.380981,731.019775 
z"/>
<path fill="#000000" opacity="1.000000" stroke="none" 
	d="
M617.653687,720.037781 
	C621.549377,704.678101 631.711487,697.572937 647.620911,698.685059 
	C659.739929,699.532227 668.900513,709.505005 670.386230,723.742920 
	C671.455994,733.994324 670.493713,743.713989 661.900452,751.009155 
	C653.450439,758.182617 643.499939,757.752502 634.006409,755.010559 
	C625.174805,752.459717 619.731201,745.459290 617.803040,736.294922 
	C616.705078,731.076904 616.207214,725.756042 617.653687,720.037781 
M635.878723,740.571960 
	C642.446106,745.732910 650.690552,744.690613 652.928650,738.258728 
	C655.412903,731.119141 655.231812,723.966980 652.342102,716.903564 
	C650.552917,712.530273 647.093994,711.078491 642.772034,711.421936 
	C638.725647,711.743347 635.608032,713.379639 634.263306,717.757202 
	C631.928528,725.357239 631.931396,732.718994 635.878723,740.571960 
z"/>
<path fill="#000000" opacity="1.000000" stroke="none" 
	d="
M435.142639,811.128357 
	C431.066467,814.693848 423.322693,814.066162 420.414154,810.384644 
	C418.055420,807.399048 412.288086,806.253296 408.984741,808.321045 
	C405.711212,810.370178 407.230316,812.532043 409.305298,814.295410 
	C412.388733,816.915894 416.440826,816.739197 420.104950,817.688599 
	C425.733704,819.147095 431.621185,820.232300 435.230652,825.509766 
	C442.874298,836.685852 436.015533,851.291931 421.936493,853.070312 
	C415.388489,853.897461 408.562317,854.290405 402.096191,852.267334 
	C396.114655,850.395813 391.491882,846.666138 389.933289,840.225403 
	C389.093994,836.757141 389.935242,834.251770 394.347137,834.628174 
	C396.331787,834.797485 398.344757,834.681580 400.343201,834.630066 
	C402.675720,834.569946 404.388672,834.516296 405.813660,837.406921 
	C408.025970,841.894653 418.153564,842.816162 422.032104,839.452576 
	C424.233551,837.543457 424.019440,835.840820 421.508362,834.323853 
	C418.735138,832.648621 415.584869,832.162720 412.533417,831.421692 
	C408.302643,830.394104 404.226868,828.980774 400.393433,826.947998 
	C393.331696,823.203186 389.984344,817.397522 390.706055,810.412231 
	C391.435608,803.351440 395.730255,798.139038 403.641693,796.384949 
	C410.805176,794.796692 418.145325,794.853577 425.301239,797.256042 
	C431.796753,799.436951 434.973633,803.936157 435.142639,811.128357 
z"/>
<path fill="#000000" opacity="1.000000" stroke="none" 
	d="
M479.665100,814.795044 
	C477.708191,809.739441 473.933380,808.554321 469.456635,808.927185 
	C464.729462,809.320862 461.400543,811.505310 460.115265,816.438965 
	C458.485382,822.695435 459.370728,828.665100 461.954437,834.381653 
	C463.738098,838.328247 467.459747,839.675415 471.478333,839.475281 
	C475.125641,839.293640 477.760345,837.131409 478.505676,833.446838 
	C479.308716,829.477234 482.194183,829.819702 485.041656,829.801758 
	C495.183685,829.737976 495.958313,830.912048 491.797333,840.078796 
	C487.215027,850.173767 475.660248,855.929871 463.781372,853.028625 
	C453.728912,850.573486 444.646271,843.683044 444.659607,830.122070 
	C444.662872,826.794800 444.944763,823.438049 444.606354,820.145508 
	C443.423553,808.636658 453.495453,799.280518 461.088318,796.309021 
	C471.273468,792.322998 483.168304,795.459412 490.093292,803.648682 
	C490.522095,804.155701 490.938049,804.678223 491.312073,805.226257 
	C493.335388,808.190369 495.162170,811.756348 493.739746,814.949646 
	C492.449646,817.846069 488.634003,816.048340 485.962708,816.212585 
	C483.938873,816.336975 481.605225,817.071411 479.665100,814.795044 
z"/>
<path fill="#000000" opacity="1.000000" stroke="none" 
	d="
M530.401611,634.497131 
	C531.007446,636.246399 531.538940,637.633362 532.271423,639.544861 
	C535.310974,634.873840 535.815002,629.766357 537.480652,625.115417 
	C539.101013,620.591125 540.501892,615.975403 541.737915,611.330322 
	C542.664734,607.847412 544.616394,606.345520 548.203125,606.707336 
	C551.314697,607.021240 554.501465,606.265991 557.867065,607.311768 
	C557.952698,612.257568 555.612122,616.562805 554.207886,621.038757 
	C550.483459,632.909668 545.633179,644.408386 542.344971,656.430786 
	C542.257263,656.751343 542.211792,657.087830 542.088501,657.393555 
	C541.132446,659.765137 538.798462,660.141052 537.068176,659.552795 
	C532.524780,658.007996 525.704346,663.290161 523.458008,657.350891 
	C517.256592,640.954346 512.307800,624.084106 506.711334,606.934326 
	C511.710785,606.934326 516.142456,606.869263 520.571167,606.957214 
	C523.511536,607.015503 523.688538,609.587097 524.241638,611.569641 
	C526.334961,619.073364 528.308777,626.610352 530.401611,634.497131 
z"/>
<path fill="#000000" opacity="1.000000" stroke="none" 
	d="
M691.171021,838.317749 
	C691.254517,839.782654 691.321045,840.780151 691.308594,841.776550 
	C691.158813,853.769348 693.261536,852.096924 680.219238,852.354553 
	C676.728210,852.423523 675.570740,851.075500 675.607788,847.670837 
	C675.736206,835.867676 675.666931,824.062195 675.642395,812.257629 
	C675.634460,808.443665 675.851257,804.626099 674.941528,800.845581 
	C674.015686,796.998291 675.565613,795.257080 679.616943,795.610535 
	C682.092224,795.826477 684.602661,795.707336 687.094849,795.642456 
	C689.597900,795.577332 691.462646,796.195618 691.152344,800.234070 
	C695.245483,795.413391 699.604492,793.645996 704.928162,794.839722 
	C708.161499,795.564819 710.144531,797.270020 708.976440,800.798401 
	C708.007751,803.724304 708.948364,806.697632 708.666016,809.565125 
	C705.676575,810.954834 702.812683,810.206238 700.046204,810.372803 
	C696.606812,810.579834 693.781616,811.672302 692.799316,815.277832 
	C690.782410,822.680420 689.210083,830.142944 691.171021,838.317749 
z"/>
<path fill="#000000" opacity="1.000000" stroke="none" 
	d="
M493.327087,714.296631 
	C486.414032,716.180908 485.685852,721.667908 485.446350,727.010559 
	C485.104309,734.640625 485.246521,742.298096 485.372009,749.940735 
	C485.423553,753.080017 484.379578,754.436646 481.090759,754.398926 
	C467.332397,754.240906 469.948975,755.643799 469.653290,743.621521 
	C469.307251,729.552124 470.446533,715.461548 468.785126,701.214783 
	C473.258881,700.181213 477.563995,700.778870 481.827362,700.744324 
	C485.067993,700.718018 484.623413,703.339355 484.952454,706.370239 
	C488.272919,699.439880 493.228638,697.327759 499.866028,699.102600 
	C502.182159,699.721863 503.784607,700.651062 503.387604,703.496216 
	C502.912567,706.900879 503.809906,710.437561 502.574799,713.893860 
	C499.558716,714.323608 496.545288,712.565613 493.327087,714.296631 
z"/>
<path fill="#000000" opacity="1.000000" stroke="none" 
	d="
M435.119446,754.366333 
	C431.570770,754.581848 430.583038,753.008911 430.632050,750.125549 
	C430.736694,743.967834 430.413300,737.795105 430.713379,731.650391 
	C431.145355,722.803833 429.563934,714.074158 429.579132,705.254395 
	C429.585175,701.748962 430.825226,700.405396 434.243805,700.659668 
	C436.395721,700.819763 438.578186,700.800781 440.731934,700.648804 
	C443.811829,700.431519 446.135437,700.968872 445.420135,706.361084 
	C449.471588,699.922058 454.013428,697.619995 460.117676,698.653198 
	C463.146698,699.165833 464.463837,700.337891 463.845856,703.676697 
	C463.249176,706.900269 463.314087,710.246277 463.075012,713.733704 
	C460.412933,714.630676 457.870544,713.253784 455.235626,713.576782 
	C450.134613,714.201904 447.625458,716.959778 446.497620,721.658020 
	C444.999237,727.899414 445.102051,734.183228 445.698883,740.498779 
	C445.745544,740.992310 445.930084,741.471191 446.005463,741.963806 
	C447.822540,753.837769 447.364075,754.383362 435.119446,754.366333 
z"/>
<path fill="#000000" opacity="1.000000" stroke="none" 
	d="
M576.940430,659.404480 
	C565.658875,659.683167 565.448975,659.678406 565.703186,648.504028 
	C566.013062,634.881653 564.497192,621.341614 564.425903,607.152527 
	C568.896484,606.207886 573.637878,606.507202 578.315063,606.898010 
	C580.909607,607.114746 580.297729,609.612976 580.306580,611.306030 
	C580.367310,622.930054 580.309021,634.554565 580.364014,646.178650 
	C580.377319,648.991699 580.701782,651.802002 580.827209,654.616089 
	C580.937378,657.087646 580.793884,659.435608 576.940430,659.404480 
z"/>
<path fill="#000000" opacity="1.000000" stroke="none" 
	d="
M572.990723,588.608032 
	C579.883301,588.706787 582.333191,592.352356 580.157043,598.435242 
	C579.768433,599.521423 579.147522,600.124573 578.064453,600.218994 
	C576.906067,600.319885 575.737366,600.371521 574.575134,600.347656 
	C563.217102,600.114075 565.159973,602.245911 564.322510,589.561646 
	C566.864136,587.880432 569.778442,588.952026 572.990723,588.608032 
z"/>
</svg>